<svg id="visual" viewBox="0 0 900 600" width="900" height="600" xmlns="http://www.w3.org/2000/svg" xmlns:xlink="http://www.w3.org/1999/xlink" version="1.1"><g stroke-width="1" stroke-linejoin="bevel"><path d="M468 237L528 303L607 181Z" fill="#000e19" stroke="#000e19"></path><path d="M528 303L614 270L607 181Z" fill="#000406" stroke="#000406"></path><path d="M614 270L659 186L607 181Z" fill="#00070c" stroke="#00070c"></path><path d="M639 74L469 127L607 181Z" fill="#000b13" stroke="#000b13"></path><path d="M607 181L469 127L468 237Z" fill="#000c15" stroke="#000c15"></path><path d="M469 127L383 174L468 237Z" fill="#000b13" stroke="#000b13"></path><path d="M355 325L493 411L528 303Z" fill="#000609" stroke="#000609"></path><path d="M493 411L609 390L528 303Z" fill="#00080e" stroke="#00080e"></path><path d="M528 303L609 390L614 270Z" fill="#000e19" stroke="#000e19"></path><path d="M614 270L736 304L659 186Z" fill="#00080e" stroke="#00080e"></path><path d="M659 186L639 74L607 181Z" fill="#000b13" stroke="#000b13"></path><path d="M736 304L706 140L659 186Z" fill="#000f1a" stroke="#000f1a"></path><path d="M659 186L706 140L639 74Z" fill="#000e19" stroke="#000e19"></path><path d="M355 325L528 303L468 237Z" fill="#000d17" stroke="#000d17"></path><path d="M723 371L736 304L614 270Z" fill="#00070c" stroke="#00070c"></path><path d="M383 174L355 325L468 237Z" fill="#000406" stroke="#000406"></path><path d="M609 390L723 371L614 270Z" fill="#000609" stroke="#000609"></path><path d="M788 396L723 371L732 462Z" fill="#00070c" stroke="#00070c"></path><path d="M444 0L375 72L469 127Z" fill="#000a11" stroke="#000a11"></path><path d="M469 127L375 72L383 174Z" fill="#00080e" stroke="#00080e"></path><path d="M383 174L270 297L355 325Z" fill="#00080e" stroke="#00080e"></path><path d="M639 74L500 0L469 127Z" fill="#000e19" stroke="#000e19"></path><path d="M355 325L364 383L493 411Z" fill="#000e19" stroke="#000e19"></path><path d="M686 0L644 0L639 74Z" fill="#000609" stroke="#000609"></path><path d="M639 74L644 0L500 0Z" fill="#00101c" stroke="#00101c"></path><path d="M500 0L444 0L469 127Z" fill="#000f1a" stroke="#000f1a"></path><path d="M355 325L342 392L364 383Z" fill="#000d17" stroke="#000d17"></path><path d="M429 512L497 519L493 411Z" fill="#000b13" stroke="#000b13"></path><path d="M270 297L342 392L355 325Z" fill="#000f1a" stroke="#000f1a"></path><path d="M760 0L686 0L706 140Z" fill="#00101c" stroke="#00101c"></path><path d="M706 140L686 0L639 74Z" fill="#000b13" stroke="#000b13"></path><path d="M723 371L797 322L736 304Z" fill="#000c15" stroke="#000c15"></path><path d="M736 304L843 222L706 140Z" fill="#000b13" stroke="#000b13"></path><path d="M244 61L281 140L375 72Z" fill="#00070c" stroke="#00070c"></path><path d="M375 72L281 140L383 174Z" fill="#000a11" stroke="#000a11"></path><path d="M265 175L270 297L383 174Z" fill="#000406" stroke="#000406"></path><path d="M281 140L265 175L383 174Z" fill="#000b13" stroke="#000b13"></path><path d="M429 512L493 411L364 383Z" fill="#000d17" stroke="#000d17"></path><path d="M493 411L627 517L609 390Z" fill="#00101c" stroke="#00101c"></path><path d="M732 462L723 371L609 390Z" fill="#000f1a" stroke="#000f1a"></path><path d="M723 371L788 396L797 322Z" fill="#000f1a" stroke="#000f1a"></path><path d="M900 206L843 222L900 267Z" fill="#000b13" stroke="#000b13"></path><path d="M797 322L843 222L736 304Z" fill="#000d17" stroke="#000d17"></path><path d="M627 517L732 462L609 390Z" fill="#000f1a" stroke="#000f1a"></path><path d="M497 519L627 517L493 411Z" fill="#00080e" stroke="#00080e"></path><path d="M342 392L429 512L364 383Z" fill="#000a11" stroke="#000a11"></path><path d="M322 518L429 512L342 392Z" fill="#000406" stroke="#000406"></path><path d="M828 91L760 0L706 140Z" fill="#000b13" stroke="#000b13"></path><path d="M843 222L828 91L706 140Z" fill="#00070c" stroke="#00070c"></path><path d="M196 241L220 316L270 297Z" fill="#000609" stroke="#000609"></path><path d="M270 297L220 316L342 392Z" fill="#000e19" stroke="#000e19"></path><path d="M281 140L244 61L265 175Z" fill="#00070c" stroke="#00070c"></path><path d="M265 175L196 241L270 297Z" fill="#00080e" stroke="#00080e"></path><path d="M255 0L244 61L375 72Z" fill="#00070c" stroke="#00070c"></path><path d="M122 185L196 241L265 175Z" fill="#000b13" stroke="#000b13"></path><path d="M900 267L843 222L797 322Z" fill="#000e19" stroke="#000e19"></path><path d="M843 222L900 206L828 91Z" fill="#00080e" stroke="#00080e"></path><path d="M900 366L900 267L797 322Z" fill="#00080e" stroke="#00080e"></path><path d="M900 366L797 322L788 396Z" fill="#000d17" stroke="#000d17"></path><path d="M217 476L322 518L342 392Z" fill="#00101c" stroke="#00101c"></path><path d="M498 600L577 600L497 519Z" fill="#000c15" stroke="#000c15"></path><path d="M444 0L255 0L375 72Z" fill="#00101c" stroke="#00101c"></path><path d="M244 61L122 185L265 175Z" fill="#000406" stroke="#000406"></path><path d="M497 519L577 600L627 517Z" fill="#000406" stroke="#000406"></path><path d="M701 600L778 527L732 462Z" fill="#000406" stroke="#000406"></path><path d="M498 600L497 519L421 600Z" fill="#000a11" stroke="#000a11"></path><path d="M421 600L497 519L429 512Z" fill="#00080e" stroke="#00080e"></path><path d="M701 600L732 462L627 517Z" fill="#000a11" stroke="#000a11"></path><path d="M732 462L778 527L788 396Z" fill="#000b13" stroke="#000b13"></path><path d="M900 485L900 366L788 396Z" fill="#00101c" stroke="#00101c"></path><path d="M89 278L183 361L220 316Z" fill="#000b13" stroke="#000b13"></path><path d="M220 316L183 361L342 392Z" fill="#00080e" stroke="#00080e"></path><path d="M900 206L900 65L828 91Z" fill="#000b13" stroke="#000b13"></path><path d="M828 91L900 0L760 0Z" fill="#000b13" stroke="#000b13"></path><path d="M322 518L421 600L429 512Z" fill="#000b13" stroke="#000b13"></path><path d="M577 600L701 600L627 517Z" fill="#000609" stroke="#000609"></path><path d="M255 0L204 0L244 61Z" fill="#000b13" stroke="#000b13"></path><path d="M196 241L89 278L220 316Z" fill="#000e19" stroke="#000e19"></path><path d="M183 361L217 476L342 392Z" fill="#00070c" stroke="#00070c"></path><path d="M322 518L331 600L421 600Z" fill="#000d17" stroke="#000d17"></path><path d="M900 65L900 0L828 91Z" fill="#00101c" stroke="#00101c"></path><path d="M83 85L122 185L244 61Z" fill="#00070c" stroke="#00070c"></path><path d="M183 361L74 436L217 476Z" fill="#000609" stroke="#000609"></path><path d="M701 600L757 600L778 527Z" fill="#00070c" stroke="#00070c"></path><path d="M778 527L900 485L788 396Z" fill="#00080e" stroke="#00080e"></path><path d="M191 600L331 600L322 518Z" fill="#000b13" stroke="#000b13"></path><path d="M900 600L900 485L778 527Z" fill="#000609" stroke="#000609"></path><path d="M122 185L89 278L196 241Z" fill="#000609" stroke="#000609"></path><path d="M204 0L141 0L244 61Z" fill="#000a11" stroke="#000a11"></path><path d="M122 185L0 156L89 278Z" fill="#000406" stroke="#000406"></path><path d="M141 0L83 85L244 61Z" fill="#00101c" stroke="#00101c"></path><path d="M217 476L191 600L322 518Z" fill="#000a11" stroke="#000a11"></path><path d="M90 538L191 600L217 476Z" fill="#00070c" stroke="#00070c"></path><path d="M757 600L900 600L778 527Z" fill="#000d17" stroke="#000d17"></path><path d="M0 334L74 436L89 278Z" fill="#000c15" stroke="#000c15"></path><path d="M89 278L74 436L183 361Z" fill="#000d17" stroke="#000d17"></path><path d="M0 106L0 156L83 85Z" fill="#00080e" stroke="#00080e"></path><path d="M83 85L0 156L122 185Z" fill="#000c15" stroke="#000c15"></path><path d="M0 524L90 538L74 436Z" fill="#00080e" stroke="#00080e"></path><path d="M74 436L90 538L217 476Z" fill="#000f1a" stroke="#000f1a"></path><path d="M0 156L0 334L89 278Z" fill="#00080e" stroke="#00080e"></path><path d="M0 0L0 106L83 85Z" fill="#000a11" stroke="#000a11"></path><path d="M0 334L0 398L74 436Z" fill="#00080e" stroke="#00080e"></path><path d="M90 538L105 600L191 600Z" fill="#000f1a" stroke="#000f1a"></path><path d="M0 600L105 600L90 538Z" fill="#000406" stroke="#000406"></path><path d="M141 0L0 0L83 85Z" fill="#000c15" stroke="#000c15"></path><path d="M0 398L0 524L74 436Z" fill="#000b13" stroke="#000b13"></path><path d="M0 524L0 600L90 538Z" fill="#000e19" stroke="#000e19"></path></g></svg>